<svg xmlns="http://www.w3.org/2000/svg" viewBox="0 0 127.67 99.02"><defs><style>.cls-1{fill:#fff;}</style></defs><g id="Capa_2" data-name="Capa 2"><g id="Capa_1-2" data-name="Capa 1"><path class="cls-1" d="M127,84.3,106.66,72.69V49.57l.09-21.67,18.84,10.75a1.42,1.42,0,0,0,.69.18,1.37,1.37,0,0,0,1.2-.7,1.39,1.39,0,0,0-.52-1.9l-20.2-11.52.09-23.32A1.39,1.39,0,0,0,105.47,0h0a1.4,1.4,0,0,0-1.39,1.38L104,23.13,85.34,12.49a1.41,1.41,0,0,0-1.39,0,1.38,1.38,0,0,0-.69,1.2V35L64.53,24.22l0,0-.23-.1-.09,0a1.12,1.12,0,0,0-.32,0h0a1.1,1.1,0,0,0-.31,0l-.09,0-.23.1,0,0L44.3,35.1V13.7a1.39,1.39,0,0,0-2.06-1.22L23.42,22.94,23.59,1.4A1.39,1.39,0,0,0,22.22,0h0a1.38,1.38,0,0,0-1.39,1.38l-.19,23.14L.69,36.24a1.39,1.39,0,0,0,.7,2.59,1.37,1.37,0,0,0,.7-.19l18.54-10.9V49.57h0l.18,23.11L.7,84.3a1.39,1.39,0,0,0,.69,2.6,1.37,1.37,0,0,0,.7-.19L22.2,75.1l20,11.66,0,0a1.22,1.22,0,0,0,.24.1l.09,0a1.65,1.65,0,0,0,.32,0h0a1.86,1.86,0,0,0,.33,0l.08,0a1,1,0,0,0,.22-.09l.09,0a1.84,1.84,0,0,0,.22-.17l0,0a2.56,2.56,0,0,0,.2-.26l0,0,0-.07a.91.91,0,0,0,.07-.14s0-.08,0-.13l0-.13a.76.76,0,0,0,0-.15s0,0,0-.08V63.92L63.14,74.7h0a1,1,0,0,0,.3.12h0l.28,0h.1a1,1,0,0,0,.24,0l.09,0a1.62,1.62,0,0,0,.28-.11h0L83.16,63.94V85.51a1.4,1.4,0,0,0,.7,1.2,1.31,1.31,0,0,0,.69.19,1.47,1.47,0,0,0,.7-.19l20-11.62,20.31,11.62a1.31,1.31,0,0,0,.69.19,1.37,1.37,0,0,0,1.2-.7A1.4,1.4,0,0,0,127,84.3ZM86,16.09,104,26.32l-.09,22.44L86,59.12,86,37.45h0Zm-23.6,31L45.8,37.44l16.64-9.61Zm2.78-19.22,16.65,9.61L65.22,47.05Zm-23.7,31.3L23.4,48.76V26.13L41.52,16.06Zm0,24L23.59,72.69,23.42,52l18.1,10.36ZM63.83,71.89,44.3,60.72V39.78L63.14,50.66h0l.06,0,.22.09.09,0a1.1,1.1,0,0,0,.31,0h0a1.2,1.2,0,0,0,.33-.05l.08,0,.23-.1,0,0h0L83.25,39.85l-.08,20.88Zm40.05.8L85.94,83.1V62.33L103.88,52Z"/><path class="cls-1" d="M22,51a1.41,1.41,0,0,1-.7-.2L.69,38.64A1.39,1.39,0,0,1,0,37.44v-24a1.39,1.39,0,0,1,2.78,0V36.65L22.72,48.37A1.39,1.39,0,0,1,22,51Z"/><path class="cls-1" d="M22,99a1.38,1.38,0,0,1-.71-.19L.69,86.7A1.36,1.36,0,0,1,0,85.51v-24a1.39,1.39,0,0,1,2.78,0V84.71L22,96,63.14,72.29a1.38,1.38,0,0,1,1.39,0l40.93,23.63,19.43-11.21V61.47a1.39,1.39,0,0,1,2.78,0v24a1.4,1.4,0,0,1-.7,1.2l-20.81,12a1.38,1.38,0,0,1-1.39,0L63.83,75.1,22.71,98.84A1.39,1.39,0,0,1,22,99Z"/><path class="cls-1" d="M105.46,98.91a1.39,1.39,0,0,1-1.39-1.38v-24a1.39,1.39,0,0,1,2.78,0v24A1.38,1.38,0,0,1,105.46,98.91Z"/><path class="cls-1" d="M63.83,74.88a1.39,1.39,0,0,1-1.39-1.39v-24a1.39,1.39,0,0,1,2.78,0v24A1.39,1.39,0,0,1,63.83,74.88Z"/><path class="cls-1" d="M22.2,99a1.39,1.39,0,0,1-1.39-1.38V73.49a1.39,1.39,0,1,1,2.78,0V97.64A1.38,1.38,0,0,1,22.2,99Z"/><path class="cls-1" d="M105.46,50.85a1.39,1.39,0,0,1-.69-2.6l20.12-11.61V13.41a1.39,1.39,0,1,1,2.78,0v24a1.37,1.37,0,0,1-.7,1.2l-20.81,12A1.37,1.37,0,0,1,105.46,50.85Z"/><path class="cls-1" d="M105.46,74.88a1.31,1.31,0,0,1-.69-.19L63.83,51.06,22.9,74.69a1.38,1.38,0,0,1-1.39,0L.7,62.68a1.39,1.39,0,0,1,0-2.41L40.24,37.44.69,14.61a1.4,1.4,0,0,1,0-2.41L21.51.19a1.38,1.38,0,0,1,1.39,0L63.83,23.82,104.77.19a1.38,1.38,0,0,1,1.39,0L127,12.2a1.39,1.39,0,0,1,0,2.41L87.43,37.44,127,60.27a1.39,1.39,0,0,1,0,2.41l-20.81,12A1.37,1.37,0,0,1,105.46,74.88ZM63.83,48.07a1.46,1.46,0,0,1,.7.18l40.93,23.64,18-10.42L84,38.64a1.39,1.39,0,0,1,0-2.4L123.5,13.41,105.46,3,64.53,26.63a1.43,1.43,0,0,1-1.39,0L22.21,3,4.17,13.4,43.71,36.24a1.38,1.38,0,0,1,0,2.4L4.17,61.47l18,10.42L63.14,48.25A1.39,1.39,0,0,1,63.83,48.07Z"/></g></g></svg>