<svg xmlns="http://www.w3.org/2000/svg" viewBox="0 0 434.77 99.02"><g id="Capa_2" data-name="Capa 2"><g id="Capa_1-2" data-name="Capa 1"><path d="M22,51a1.41,1.41,0,0,1-.7-.2L.69,38.64A1.39,1.39,0,0,1,0,37.44v-24a1.39,1.39,0,0,1,2.78,0V36.65L22.72,48.37A1.39,1.39,0,0,1,22,51Z"/><path d="M22,99a1.38,1.38,0,0,1-.71-.19L.69,86.7A1.37,1.37,0,0,1,0,85.51v-24a1.39,1.39,0,0,1,2.78,0V84.71L22,96,63.14,72.29a1.38,1.38,0,0,1,1.39,0l40.93,23.63,19.43-11.21V61.47a1.39,1.39,0,0,1,2.78,0v24a1.4,1.4,0,0,1-.7,1.2l-20.81,12a1.38,1.38,0,0,1-1.39,0L63.83,75.1,22.71,98.84A1.39,1.39,0,0,1,22,99Z"/><path d="M105.46,98.91a1.39,1.39,0,0,1-1.39-1.38v-24a1.39,1.39,0,0,1,2.78,0v24A1.38,1.38,0,0,1,105.46,98.91Z"/><path d="M63.83,74.88a1.39,1.39,0,0,1-1.39-1.39v-24a1.39,1.39,0,0,1,2.78,0v24A1.39,1.39,0,0,1,63.83,74.88Z"/><path d="M22.2,99a1.39,1.39,0,0,1-1.39-1.38V73.49a1.39,1.39,0,1,1,2.78,0V97.64A1.38,1.38,0,0,1,22.2,99Z"/><path d="M105.46,50.85a1.39,1.39,0,0,1-.69-2.6l20.12-11.61V13.41a1.39,1.39,0,1,1,2.78,0v24a1.37,1.37,0,0,1-.7,1.2l-20.81,12A1.37,1.37,0,0,1,105.46,50.85Z"/><path d="M105.46,74.88a1.31,1.31,0,0,1-.69-.19L63.83,51.06,22.9,74.69a1.38,1.38,0,0,1-1.39,0L.7,62.68a1.39,1.39,0,0,1,0-2.41L40.24,37.44.69,14.61a1.4,1.4,0,0,1,0-2.41L21.51.19a1.38,1.38,0,0,1,1.39,0L63.83,23.82,104.77.19a1.38,1.38,0,0,1,1.39,0L127,12.2a1.39,1.39,0,0,1,0,2.41L87.43,37.44,127,60.27a1.39,1.39,0,0,1,0,2.41l-20.81,12A1.37,1.37,0,0,1,105.46,74.88ZM63.83,48.07a1.46,1.46,0,0,1,.7.18l40.93,23.64,18-10.42L84,38.64a1.39,1.39,0,0,1,0-2.4L123.5,13.41,105.46,3,64.53,26.63a1.43,1.43,0,0,1-1.39,0L22.21,3,4.17,13.4,43.71,36.24a1.38,1.38,0,0,1,0,2.4L4.17,61.47l18,10.42L63.14,48.25A1.39,1.39,0,0,1,63.83,48.07Z"/><path d="M173.3,47.88l13.31-18h-3l-11.88,16-11.88-16h-3.19L170,47.93,155.62,67.16h3.19L171.59,49.9l12.84,17.26h3.2Z"/><path d="M218.36,33.2q-4-3.33-11-3.32H194v2.44h13.36q6,0,9.12,2.64a9.24,9.24,0,0,1,3.14,7.48,9.15,9.15,0,0,1-3.14,7.46q-3.15,2.61-9.12,2.61H194V67.16h2.71V55h10.65q7,0,11-3.33a11.32,11.32,0,0,0,4-9.19A11.39,11.39,0,0,0,218.36,33.2Z"/><path d="M231.52,29.88v2.44h24.93V29.88Zm0,17.41v2.45h24.93V47.29Zm0,17.42v2.45h24.93V64.71Z"/><path d="M321.21,29.88v2.44h24.93V29.88Zm0,17.41v2.45h24.93V47.29Zm0,17.42v2.45h24.93V64.71Z"/><path d="M286.81,54.11a11.38,11.38,0,0,0,8.73-11.67,11.37,11.37,0,0,0-4-9.24q-4-3.33-11-3.32H267.15v2.44h13.37c4,0,7,.88,9.11,2.64a9.24,9.24,0,0,1,3.14,7.48,9.24,9.24,0,0,1-3.14,7.49c-2.1,1.76-5.13,2.64-9.11,2.64H267.15V67.16h2.71V55h10.66a28.38,28.38,0,0,0,3.62-.26L293,67.16h3.08Z"/><path d="M305.5,29.88V67.16h2.72V29.88Z"/><path d="M384.49,29.88V62.26L359.13,29.88h-2.29V67.16h2.72V34.77L385,67.16h2.23V29.88Z"/><path d="M432.26,38.9a17.48,17.48,0,0,0-7-6.63A21.58,21.58,0,0,0,415,29.88H400.2V67.16H415a21.58,21.58,0,0,0,10.31-2.4,17.48,17.48,0,0,0,7-6.63,18.52,18.52,0,0,0,2.51-9.61A18.53,18.53,0,0,0,432.26,38.9Zm-2.34,18a14.67,14.67,0,0,1-6.07,5.73,19.57,19.57,0,0,1-9.11,2H402.92V32.32h11.82a19.57,19.57,0,0,1,9.11,2,14.67,14.67,0,0,1,6.07,5.73,16.49,16.49,0,0,1,2.13,8.42A16.45,16.45,0,0,1,429.92,56.93Z"/></g></g></svg>