<svg xmlns="http://www.w3.org/2000/svg" xmlns:xlink="http://www.w3.org/1999/xlink" viewBox="0 0 588.123 137.383"><defs><linearGradient id="Degradado_sin_nombre_33" x1="88.787" y1="-0.108" x2="88.527" y2="136.89" gradientUnits="userSpaceOnUse"><stop offset="0" stop-color="#e518ba"/><stop offset="0.18" stop-color="#e62893"/><stop offset="0.456" stop-color="#e73e5c"/><stop offset="0.695" stop-color="#e84e34"/><stop offset="0.884" stop-color="#e9571c"/><stop offset="1" stop-color="#e95b13"/></linearGradient><linearGradient id="Degradado_sin_nombre_33-2" x1="200.96" y1="68.767" x2="588.025" y2="68.767" xlink:href="#Degradado_sin_nombre_33"/><linearGradient id="Degradado_sin_nombre_33-4" x1="200.96" y1="68.765" x2="588.025" y2="68.765" xlink:href="#Degradado_sin_nombre_33"/></defs><title>Recurso 1x1</title><g id="Capa_2" data-name="Capa 2"><g id="Capa_1-2" data-name="Capa 1"><path d="M176.342,117.089l-28.2-16.135v-32.1l.119-30.282,26.159,15.1a1.929,1.929,0,0,0,1.929-3.341l-28.07-16.207L148.4,1.938A1.929,1.929,0,0,0,146.483,0a1.952,1.952,0,0,0-1.937,1.921L144.428,31.9l-25.9-14.952a1.929,1.929,0,0,0-2.893,1.671V48.66L89.623,33.641c-.023-.013-.048-.017-.07-.029a1.875,1.875,0,0,0-.327-.135c-.038-.012-.075-.026-.114-.036a1.776,1.776,0,0,0-.908,0c-.039.01-.076.024-.114.036a1.875,1.875,0,0,0-.327.135c-.022.012-.047.016-.069.029L61.634,48.686l.046-30.061a1.928,1.928,0,0,0-2.88-1.681L32.533,31.833,32.77,1.946A1.93,1.93,0,0,0,30.856,0a1.9,1.9,0,0,0-1.944,1.913l-.255,32.136L.952,50.339a1.929,1.929,0,0,0,1.955,3.326L28.649,38.531V68.859l.251,32.1L.968,117.091A1.929,1.929,0,1,0,2.9,120.432L30.833,104.3l27.794,16.2c.022.013.046.017.069.028a1.823,1.823,0,0,0,.331.139c.04.012.079.027.12.037a1.936,1.936,0,0,0,.44.058H59.6a1.906,1.906,0,0,0,.443-.057c.04-.01.078-.025.118-.037a1.85,1.85,0,0,0,.309-.125c.04-.02.08-.041.119-.064a1.94,1.94,0,0,0,.312-.234c.016-.014.033-.025.048-.04a1.917,1.917,0,0,0,.283-.362c.008-.014.021-.024.029-.038.019-.032.029-.067.046-.1a1.847,1.847,0,0,0,.087-.192,2.533,2.533,0,0,0,.1-.358,1.855,1.855,0,0,0,.021-.208c0-.038.012-.073.012-.111l.045-30.04L87.7,103.748c.013.008.028.01.042.017a1.883,1.883,0,0,0,.424.174l.026,0a1.918,1.918,0,0,0,.415.054c.016,0,.033.006.049.006s.049-.009.074-.009a2,2,0,0,0,.343-.045c.04-.009.079-.016.118-.027a1.917,1.917,0,0,0,.381-.155c.015-.008.031-.012.045-.02l0,0,25.9-14.952.118,29.979a1.929,1.929,0,0,0,2.9,1.66L146.221,104.3l28.2,16.138a1.929,1.929,0,0,0,1.916-3.349ZM119.5,21.962l24.915,14.385-.124,31.381L119.376,82.11l.12-30.1V21.962ZM86.729,65.351,63.607,52l23.122-13.35Zm3.858-26.7L113.709,52,90.587,65.35Zm-32.862,43.5L32.506,67.725V36.283L57.817,21.935Zm-.05,33.33L32.758,100.958l-.225-28.773L57.719,86.6ZM115.51,84.343,88.652,99.849,61.58,84.36l.044-29.048,26.068,15.05.006,0c.028.016.058.024.086.038a1.852,1.852,0,0,0,.3.121c.043.014.085.03.128.04a1.949,1.949,0,0,0,.421.055c.007,0,.015,0,.023,0h0l.013,0a1.948,1.948,0,0,0,.435-.056c.039-.01.077-.024.116-.036a1.928,1.928,0,0,0,.318-.13c.024-.012.05-.019.073-.032l.007,0,26-15.012Zm28.773,16.621-24.8,14.451-.114-28.845,24.915-14.385Z" fill="#ffc943"/><path d="M177.313,52V18.622h0v-.006a1.88,1.88,0,0,0-.06-.452c-.01-.042-.025-.082-.038-.123a1.851,1.851,0,0,0-.129-.311c-.02-.039-.039-.077-.062-.115a1.932,1.932,0,0,0-.262-.341l-.012-.015a1.948,1.948,0,0,0-.36-.277c-.014-.009-.025-.022-.04-.031L147.44.26a1.932,1.932,0,0,0-1.929,0L88.658,33.084,31.805.26a1.93,1.93,0,0,0-1.928,0L.965,16.949c-.015.008-.025.021-.04.03a1.95,1.95,0,0,0-.361.278l-.008.01a1.942,1.942,0,0,0-.266.346c-.022.037-.041.075-.061.114a1.8,1.8,0,0,0-.13.313c-.013.04-.028.079-.038.121A1.916,1.916,0,0,0,0,18.619V52a1.93,1.93,0,0,0,.952,1.663L26.746,68.829.968,83.712c-.015.009-.026.022-.041.031a1.911,1.911,0,0,0-.36.278l-.008.009a1.886,1.886,0,0,0-.266.348c-.023.036-.041.073-.061.111A1.936,1.936,0,0,0,.1,84.8c-.012.04-.027.079-.037.12A1.931,1.931,0,0,0,0,85.383v33.379a1.929,1.929,0,0,0,.965,1.67l28.908,16.692c.019.011.04.014.059.024a1.852,1.852,0,0,0,.346.143c.034.01.067.023.1.032a1.942,1.942,0,0,0,.455.06h.007a1.908,1.908,0,0,0,.444-.058c.044-.011.086-.026.129-.04a1.9,1.9,0,0,0,.3-.126c.027-.014.056-.019.082-.034L88.657,104.3l56.854,32.823c.022.013.047.017.07.029a1.82,1.82,0,0,0,.325.134c.039.012.077.027.116.036a1.74,1.74,0,0,0,.906,0c.04-.009.078-.024.117-.036a1.841,1.841,0,0,0,.324-.134c.023-.012.048-.016.071-.029l28.908-16.69a1.929,1.929,0,0,0,.965-1.67V85.383a1.931,1.931,0,0,0-.061-.459c-.01-.041-.025-.08-.037-.12a1.936,1.936,0,0,0-.131-.315c-.02-.038-.038-.075-.061-.111a1.886,1.886,0,0,0-.266-.348l-.007-.009a1.95,1.95,0,0,0-.361-.278c-.015-.009-.026-.022-.041-.031l-26.015-15.02,26.015-15.02A1.929,1.929,0,0,0,177.313,52ZM3.858,50.9V21.96L55.891,52l-25.3,14.609Zm0,37.826,25.048,14.461v28.926L3.861,117.648Zm140.685,14.463v28.926L90.586,100.96V72.032ZM86.728,100.96,32.767,132.114V103.185L86.728,72.032ZM148.4,132.112V103.187l25.051-14.463V117.65Zm-1.929-32.266L89.621,67.021c-.022-.013-.047-.017-.07-.029a1.9,1.9,0,0,0-.325-.135c-.039-.012-.077-.026-.116-.036a1.769,1.769,0,0,0-.906,0c-.04.01-.077.024-.117.037a1.883,1.883,0,0,0-.325.134c-.022.012-.048.016-.07.029L30.838,99.844,5.79,85.383,60.714,53.672a1.929,1.929,0,0,0,0-3.341L5.788,18.619,30.841,4.158,87.694,36.982a1.932,1.932,0,0,0,1.929,0L146.475,4.158l25.051,14.463L116.6,50.331a1.929,1.929,0,0,0,0,3.341L144.538,69.8l0,.007a1.927,1.927,0,0,0,1.672.965h.007l25.305,14.611Zm0-33.381L121.425,52l52.03-30.04V50.888Z" fill="url(#Degradado_sin_nombre_33)"/><path d="M224.969,67.879l18.5-25H239.25l-16.5,22.266-16.5-22.266h-4.434L220.313,67.95l-19.9,26.709h4.435L222.6,70.688l17.832,23.971h4.435Z" fill="url(#Degradado_sin_nombre_33-2)"/><path d="M287.555,47.5q-5.55-4.62-15.315-4.62H253.674v3.4H272.24q8.289,0,12.656,3.665t4.364,10.388q0,6.738-4.364,10.36T272.24,74.31H253.674V94.659h3.772V77.718H272.24q9.765,0,15.315-4.627T293.1,60.328Q293.1,52.126,287.555,47.5Z" fill="url(#Degradado_sin_nombre_33-2)"/><path d="M305.829,42.875v3.4h34.623v-3.4Zm0,24.188v3.4h34.623v-3.4Zm0,24.191v3.4h34.623v-3.4Z" fill="url(#Degradado_sin_nombre_33-4)"/><path d="M430.4,42.875v3.4h34.623v-3.4Zm0,24.188v3.4h34.623v-3.4Zm0,24.191v3.4h34.623v-3.4Z" fill="url(#Degradado_sin_nombre_33-4)"/><path d="M382.618,76.535a15.795,15.795,0,0,0,12.128-16.207q0-8.2-5.547-12.833t-15.315-4.62H355.318v3.4h18.566q8.289,0,12.656,3.665T390.9,60.328q0,6.738-4.363,10.4t-12.656,3.665H355.318v20.27h3.772V77.718h14.794a38.411,38.411,0,0,0,5.034-.371l12.356,17.312h4.285Z" fill="url(#Degradado_sin_nombre_33-2)"/><path d="M408.578,42.875V94.659h3.779V42.875Z" fill="url(#Degradado_sin_nombre_33-2)"/><path d="M518.286,42.875V87.85L483.071,42.875h-3.18V94.659h3.772V49.676l35.293,44.983h3.1V42.875Z" fill="url(#Degradado_sin_nombre_33-2)"/><path d="M584.644,55.409a24.37,24.37,0,0,0-9.726-9.2A29.944,29.944,0,0,0,560.6,42.875H540.11V94.659H560.6a30.014,30.014,0,0,0,14.316-3.33,24.373,24.373,0,0,0,9.726-9.212,25.745,25.745,0,0,0,3.479-13.354A25.763,25.763,0,0,0,584.644,55.409Zm-3.259,25.04a20.29,20.29,0,0,1-8.427,7.957A27.071,27.071,0,0,1,560.3,91.251h-16.42V46.275H560.3a27.083,27.083,0,0,1,12.656,2.845,20.378,20.378,0,0,1,8.427,7.957,22.856,22.856,0,0,1,2.966,11.686A22.838,22.838,0,0,1,581.385,80.449Z" fill="url(#Degradado_sin_nombre_33-2)"/></g></g></svg>