<svg version="1.0" xmlns="http://www.w3.org/2000/svg"
 width="154.7000000pt" height="62.5000000pt" viewBox="0 0 1547.000000 625.000000"
 preserveAspectRatio="xMidYMid meet">

<g transform="translate(0.000000,625.000000) scale(0.100000,-0.100000)"
fill="#000000" stroke="none">
<path d="M3523 4622 c-13 -4 -32 -15 -43 -24 -20 -18 -20 -27 -20 -762 l0
-745 26 -20 c53 -42 187 -20 199 32 2 12 6 150 7 307 3 266 4 288 24 324 44
86 139 126 227 97 46 -15 112 -88 126 -137 7 -23 11 -149 11 -311 0 -149 3
-279 6 -288 10 -26 59 -45 114 -45 53 0 86 12 107 39 19 25 17 564 -2 655 -26
122 -104 225 -213 278 -56 28 -76 33 -141 33 -92 0 -136 -15 -201 -66 -27 -21
-52 -39 -55 -39 -3 0 -5 141 -5 313 0 171 -4 317 -8 324 -20 32 -106 50 -159
35z"/>
<path d="M2333 4570 c-64 -26 -62 -179 3 -209 15 -7 86 -11 179 -11 l155 0 2
-626 3 -626 28 -24 c23 -20 39 -24 92 -24 53 0 69 4 92 24 l28 24 3 625 2 626
171 3 c162 3 172 4 189 25 41 51 30 165 -20 190 -30 15 -890 18 -927 3z"/>
<path d="M6111 4564 c-152 -41 -258 -151 -290 -302 -7 -34 -11 -196 -11 -457
0 -427 4 -473 47 -558 73 -146 215 -220 418 -221 121 0 188 15 278 62 109 56
176 146 198 266 12 69 4 131 -22 157 -15 15 -34 19 -83 19 -86 0 -100 -13
-120 -114 -17 -88 -47 -136 -107 -171 -51 -30 -207 -29 -266 2 -53 29 -98 84
-112 139 -7 27 -11 181 -11 419 0 238 4 392 11 419 23 92 106 155 215 164 144
11 245 -52 269 -168 17 -88 25 -107 50 -118 31 -14 104 -16 139 -2 53 20 57
142 9 252 -44 100 -165 190 -291 217 -73 15 -256 13 -321 -5z"/>
<path d="M9933 4519 c-41 -12 -83 -62 -83 -100 0 -72 53 -119 136 -119 39 0
51 5 80 34 28 28 34 42 34 76 0 23 -4 49 -10 59 -23 43 -99 68 -157 50z"/>
<path d="M8319 4047 c-31 -13 -72 -33 -91 -45 -55 -34 -127 -117 -156 -180
l-27 -57 -3 -582 -3 -581 27 -21 c20 -15 41 -21 81 -21 47 0 59 4 84 29 l29
29 0 251 0 250 51 -34 c105 -69 262 -84 363 -36 63 31 135 98 173 162 54 91
65 156 61 363 l-3 181 -34 69 c-43 88 -120 165 -208 207 -62 30 -77 34 -178
36 -97 3 -116 1 -166 -20z m259 -224 c28 -17 58 -48 77 -77 29 -48 30 -53 33
-194 3 -116 0 -154 -13 -188 -28 -75 -133 -154 -204 -154 -62 0 -175 78 -200
138 -9 20 -11 83 -9 199 3 166 4 170 30 211 67 100 186 127 286 65z"/>
<path d="M4820 4049 c-122 -24 -251 -123 -306 -234 l-29 -60 0 -215 0 -215 34
-63 c59 -109 178 -194 309 -221 68 -14 206 -14 274 0 113 24 218 99 218 155 0
14 -7 38 -15 54 -31 61 -82 65 -186 15 -62 -30 -84 -35 -143 -35 -88 0 -136
15 -186 58 -51 43 -69 78 -73 139 l-2 48 265 5 c232 4 269 7 293 23 51 33 62
63 62 163 -1 85 -3 97 -38 167 -83 169 -275 255 -477 216z m161 -190 c43 -15
97 -65 115 -106 21 -48 18 -100 -6 -113 -12 -7 -86 -9 -197 -8 l-178 3 -3 27
c-6 50 18 111 59 150 57 54 135 72 210 47z"/>
<path d="M9472 4024 c-28 -14 -74 -50 -102 -81 l-50 -55 0 39 c0 59 -10 83
-41 98 -54 28 -147 11 -163 -30 -3 -9 -6 -217 -6 -461 l0 -445 25 -24 c45 -46
178 -26 190 28 2 12 6 141 7 287 3 259 4 266 28 315 33 66 99 129 157 149 25
9 75 16 109 16 57 0 64 2 88 31 29 35 33 76 11 118 -19 37 -31 41 -124 41 -63
0 -87 -5 -129 -26z"/>
<path d="M10625 4037 c-120 -40 -208 -116 -262 -225 l-38 -76 -3 -327 c-3
-322 -3 -328 18 -347 41 -38 137 -36 181 4 18 16 19 37 19 316 0 329 2 342 63
407 85 90 206 93 295 8 71 -68 72 -72 72 -407 l0 -301 25 -23 c32 -30 77 -39
125 -26 73 20 71 8 68 376 l-3 329 -39 73 c-46 87 -111 149 -204 194 -60 30
-75 33 -172 35 -67 2 -120 -2 -145 -10z"/>
<path d="M12704 4039 c-66 -16 -146 -69 -181 -122 -61 -91 -68 -227 -14 -307
44 -66 105 -100 262 -145 144 -41 198 -76 213 -138 8 -35 -17 -90 -52 -114
-22 -15 -47 -18 -132 -18 -109 0 -149 12 -219 66 -88 69 -181 -59 -102 -139
70 -69 205 -106 362 -99 121 5 197 32 257 90 61 58 77 101 77 202 0 73 -4 98
-22 130 -46 86 -122 133 -288 180 -163 45 -195 68 -195 138 0 110 154 151 321
85 91 -36 116 -32 144 22 54 103 -49 169 -275 176 -63 2 -133 -1 -156 -7z"/>
<path d="M7035 4031 c-11 -5 -28 -18 -38 -29 -17 -19 -18 -43 -15 -343 l3
-324 34 -67 c58 -117 173 -208 300 -238 70 -16 190 -8 259 18 l52 20 0 -339
c0 -383 -2 -398 -64 -424 -20 -8 -55 -15 -80 -15 l-45 0 -6 58 c-20 188 -110
318 -272 395 -62 29 -78 32 -183 35 -146 5 -161 -4 -168 -95 -13 -185 77 -371
221 -453 l48 -27 -50 -32 c-148 -95 -232 -269 -219 -454 7 -91 22 -100 168
-95 111 3 119 5 193 41 156 77 240 202 262 390 l6 57 86 0 c47 0 104 6 127 12
60 18 138 99 167 173 l24 60 3 822 3 823 -33 20 c-57 35 -152 19 -178 -29 -6
-12 -10 -131 -10 -313 0 -333 -3 -345 -79 -410 -83 -71 -188 -72 -269 -3 -75
65 -76 71 -82 420 l-5 309 -34 23 c-35 24 -88 29 -126 14z"/>
<path d="M9914 4026 c-17 -8 -34 -21 -38 -31 -3 -9 -6 -217 -6 -461 l0 -445
25 -24 c19 -20 34 -25 75 -25 55 0 104 20 114 45 10 28 7 895 -4 915 -20 37
-108 51 -166 26z"/>
<path d="M11443 4020 c-18 -11 -35 -30 -39 -44 -3 -13 -4 -158 -2 -322 4 -283
5 -302 27 -357 43 -110 140 -205 251 -248 70 -27 190 -36 261 -19 165 38 299
175 328 335 6 33 11 180 11 340 l0 282 -26 24 c-21 20 -36 24 -83 24 -38 0
-66 -6 -84 -18 l-27 -17 0 -288 c0 -343 -4 -365 -79 -435 -55 -51 -112 -72
-172 -62 -44 8 -108 47 -138 87 -47 59 -51 93 -51 399 0 254 -2 289 -17 304
-39 39 -110 46 -160 15z"/>
</g>
</svg>
